<?xml version="1.0" standalone="no"?>
<!DOCTYPE svg PUBLIC "-//W3C//DTD SVG 20010904//EN"
 "http://www.w3.org/TR/2001/REC-SVG-20010904/DTD/svg10.dtd">
<svg version="1.0" xmlns="http://www.w3.org/2000/svg"
 width="300.000000pt" height="300.000000pt" viewBox="0 0 300.000000 300.000000"
 preserveAspectRatio="xMidYMid meet">
<metadata>
Created by potrace 1.14, written by Peter Selinger 2001-2017
</metadata>
<g transform="translate(0.000000,300.000000) scale(0.100000,-0.100000)"
fill="#000000" stroke="none">
<path d="M1895 2320 c-55 -4 -267 -8 -472 -9 l-372 -1 -75 -52 c-42 -29 -76
-59 -76 -66 0 -7 91 -149 203 -315 111 -166 209 -317 216 -334 25 -60 18 -72
-296 -490 -173 -231 -205 -278 -212 -320 -5 -26 -6 -52 -1 -57 5 -4 152 -3
337 4 206 8 438 9 624 5 l297 -7 11 53 c7 30 15 83 18 118 l6 64 -39 -8 c-21
-4 -249 -9 -505 -12 -378 -3 -467 -2 -476 9 -8 10 -2 27 26 68 20 30 119 176
219 324 107 159 182 279 182 293 0 12 -66 130 -147 260 -202 329 -187 301
-173 318 11 13 70 15 401 15 l389 0 20 33 c33 53 45 98 29 108 -8 5 -18 8 -24
7 -5 -1 -55 -5 -110 -8z"/>
</g>
</svg>
